<?xml version="1.0" standalone="no"?>
<!DOCTYPE svg PUBLIC "-//W3C//DTD SVG 20010904//EN"
 "http://www.w3.org/TR/2001/REC-SVG-20010904/DTD/svg10.dtd">
<svg version="1.0" xmlns="http://www.w3.org/2000/svg"
 width="512.000000pt" height="512.000000pt" viewBox="0 0 512.000000 512.000000"
 preserveAspectRatio="xMidYMid meet">
<metadata>
Created by potrace 1.14, written by Peter Selinger 2001-2017
</metadata>
<g transform="translate(0.000000,512.000000) scale(0.100000,-0.100000)"
fill="#000000" stroke="none">
<path d="M1460 4528 c-20 -44 -30 -54 -71 -71 -27 -12 -49 -24 -49 -29 0 -4
23 -17 50 -29 44 -19 54 -29 72 -70 11 -27 24 -49 28 -49 4 0 17 22 28 49 18
43 27 53 71 72 58 25 56 37 -8 59 -32 10 -43 21 -62 62 -13 27 -26 51 -29 53
-4 2 -17 -19 -30 -47z"/>
<path d="M2382 4165 c-40 -13 -98 -35 -129 -50 -96 -45 -195 -74 -278 -80
-164 -12 -288 -51 -387 -121 -79 -56 -97 -75 -185 -194 -95 -128 -91 -123
-223 -222 -214 -159 -290 -290 -315 -543 -15 -152 -17 -162 -83 -311 -60 -136
-74 -193 -75 -304 0 -103 17 -176 73 -305 74 -173 74 -172 85 -308 3 -35 8
-74 10 -88 3 -13 8 -37 10 -54 16 -93 101 -241 182 -316 26 -25 80 -67 118
-94 101 -70 119 -88 210 -210 182 -243 283 -296 630 -331 58 -6 101 -20 285
-97 100 -42 173 -55 284 -51 90 3 160 23 296 84 97 43 143 57 215 65 193 21
227 28 304 59 128 52 202 116 328 286 65 87 95 118 183 183 129 96 160 125
215 202 74 103 103 191 120 360 13 134 20 162 61 253 13 29 24 55 24 57 0 2
11 28 24 57 41 91 60 222 45 319 -16 108 -15 106 -98 296 -34 78 -46 129 -56
238 -7 81 -23 171 -34 200 -67 167 -132 246 -301 367 -90 64 -124 99 -210 218
-149 205 -292 283 -560 305 -94 8 -176 30 -260 71 -131 63 -186 77 -315 80
-104 3 -130 0 -193 -21z"/>
<path d="M4090 4107 c-52 -47 -62 -91 -34 -150 24 -50 72 -69 146 -58 22 3 68
57 74 87 9 48 -1 76 -38 113 -41 40 -109 44 -148 8z"/>
<path d="M822 3998 c-21 -21 -14 -57 14 -70 31 -14 57 -1 62 31 7 42 -46 69
-76 39z"/>
<path d="M532 3757 c-16 -34 -32 -72 -36 -83 -4 -14 -33 -32 -88 -56 -45 -20
-84 -41 -86 -47 -2 -6 23 -22 55 -36 32 -14 70 -31 85 -37 19 -9 34 -32 58
-90 18 -43 36 -80 39 -83 14 -8 28 12 60 86 l32 76 77 33 c76 33 98 49 84 61
-4 3 -41 20 -83 38 l-77 33 -37 84 c-21 46 -41 84 -46 84 -4 0 -21 -28 -37
-63z"/>
<path d="M4651 3692 c-11 -31 -22 -42 -57 -58 -24 -10 -44 -22 -44 -25 0 -3
18 -13 40 -22 32 -12 45 -25 58 -56 9 -23 22 -41 27 -41 6 0 17 18 26 39 12
29 27 43 58 57 22 10 41 21 41 25 0 3 -19 14 -42 23 -34 13 -46 24 -60 56 -9
22 -21 40 -26 40 -5 0 -14 -17 -21 -38z"/>
</g>
</svg>
